<svg version="1.1" id="Layer_1" xmlns="http://www.w3.org/2000/svg" xmlns:xlink="http://www.w3.org/1999/xlink" x="0px" y="0px"
	 width="100%" viewBox="0 0 992 992" enable-background="new 0 0 992 992" xml:space="preserve">
<path fill="#34BBAD" opacity="1.000000" stroke="none" 
	d="
M626.987549,579.842163 
	C621.031128,584.710205 615.402283,589.399353 609.638855,593.916809 
	C606.469238,596.401123 605.235046,595.690430 604.681213,591.555481 
	C601.457458,567.486389 597.984436,543.448181 595.037659,519.345459 
	C593.059753,503.168427 590.927917,487.016296 588.827759,470.857422 
	C588.282715,466.663391 586.817932,465.736298 583.057373,466.786469 
	C569.771973,470.496460 556.494751,474.244507 543.149353,477.728699 
	C528.990417,481.425232 514.818604,485.120026 500.523956,488.223816 
	C495.376434,489.341461 493.222900,491.920258 492.340851,496.670959 
	C490.064880,508.928894 487.636017,521.158569 485.235992,533.393250 
	C484.614380,536.561890 475.290375,544.931274 472.354950,544.976501 
	C469.943054,545.013733 469.888702,543.136597 469.794037,541.481750 
	C469.442505,535.336853 468.922913,529.188904 468.899536,523.040466 
	C468.850067,510.036285 467.196930,497.134399 466.729889,484.162964 
	C466.656097,482.114746 465.495972,480.794098 464.371490,479.360504 
	C453.173492,465.084045 441.968536,450.813019 430.786469,436.524139 
	C427.925415,432.868164 428.469238,432.013672 433.072052,430.797302 
	C439.832275,429.010773 445.427429,430.037201 451.023254,434.738586 
	C459.804169,442.115845 469.352509,448.572266 478.390411,455.655273 
	C481.258820,457.903229 483.714661,457.748260 486.602020,456.165771 
	C512.152649,442.161926 538.116760,428.968811 564.573242,416.762543 
	C569.139526,414.655823 567.141724,412.095673 565.491272,409.627197 
	C556.051575,395.508850 546.521729,381.450745 537.016357,367.376312 
	C523.699341,347.658051 510.374146,327.945282 497.066833,308.220428 
	C496.517853,307.406708 495.909271,306.560852 496.172119,305.403229 
	C497.242523,303.764587 499.025574,303.964844 500.634613,303.928070 
	C508.630402,303.745270 516.629089,303.683228 524.623901,303.470093 
	C526.658936,303.415863 528.028564,304.255035 529.418823,305.615356 
	C557.754272,333.339752 586.167236,360.985199 614.430420,388.782928 
	C617.625732,391.925568 620.254517,393.175507 624.853027,391.395691 
	C638.956482,385.937073 653.378113,381.383057 668.057007,377.644684 
	C680.987122,374.351624 694.035828,371.403259 707.346069,371.008209 
	C717.735840,370.699860 728.175354,372.015564 738.125427,375.676056 
	C741.851929,377.046906 742.328247,379.151306 740.708435,382.648254 
	C734.504089,396.042969 723.889893,405.252441 711.931396,413.099304 
	C691.525513,426.489166 669.625549,436.943329 646.706421,445.242157 
	C641.563477,447.104340 639.391357,449.759735 639.029480,455.682037 
	C637.203674,485.562805 634.611450,515.395874 632.502930,545.260803 
	C631.835388,554.716003 631.582458,564.195007 630.382996,573.616333 
	C630.065002,576.114441 629.196960,578.066895 626.987549,579.842163 
z"/>
<path fill="#34BBAD" opacity="1.000000" stroke="none" 
	d="
M442.343292,681.930908 
	C419.455292,675.844788 398.788788,666.147339 380.595947,651.517273 
	C363.939697,638.122864 350.117706,622.281555 339.634583,603.575378 
	C338.149170,600.924927 338.025299,599.019958 340.730927,597.255798 
	C345.747528,593.984680 350.713531,590.635864 355.696533,587.313293 
	C357.616425,586.033203 359.776642,586.075806 361.957397,586.074524 
	C373.288116,586.067810 384.619049,585.977844 395.949432,586.028137 
	C399.592407,586.044312 401.425690,585.145752 399.815125,581.062256 
	C399.031097,579.074402 398.809631,576.862793 398.351471,574.748657 
	C396.437805,565.918091 398.145447,563.354309 406.959686,561.182556 
	C410.165009,560.392761 410.634979,562.351624 411.159729,564.583801 
	C412.490662,570.245300 413.932922,575.882263 415.154236,581.567017 
	C415.821259,584.671570 417.417206,586.064697 420.660217,586.050293 
	C436.822662,585.978333 452.985901,585.980042 469.148254,586.064514 
	C472.560272,586.082336 474.093018,584.746216 473.812378,581.312500 
	C473.704224,579.988953 474.040314,578.601379 473.781555,577.322449 
	C471.849762,567.773438 475.669495,561.656006 484.470673,557.815308 
	C487.846252,556.342285 489.143738,556.578064 489.157349,560.272278 
	C489.182526,567.103760 489.270813,573.939697 489.062073,580.765503 
	C488.944427,584.611755 490.363251,586.149353 494.265381,586.114136 
	C510.260498,585.969482 526.257263,585.996643 542.253418,585.981934 
	C544.986755,585.979431 546.931091,585.334961 547.799988,582.212219 
	C551.922424,567.396851 554.053833,552.310608 554.754028,536.968872 
	C554.951477,532.643127 553.516235,531.060730 549.091736,531.132263 
	C535.931580,531.344910 522.765503,531.222046 509.601868,531.189270 
	C503.689453,531.174622 503.507538,530.922974 504.588379,525.288635 
	C504.933014,523.492065 505.452423,521.719971 505.669830,519.910095 
	C506.036377,516.858826 508.063080,515.974487 510.616180,516.241943 
	C524.094238,517.653748 537.582275,515.062988 551.052307,516.426147 
	C554.091614,516.733704 554.686890,514.935669 554.720459,512.420166 
	C554.784973,507.582367 554.670288,502.765625 553.719238,498.003540 
	C552.963562,494.219940 553.983337,491.737152 558.319519,491.642548 
	C558.485474,491.638947 558.653809,491.621490 558.815918,491.586731 
	C568.509583,489.505951 568.525391,489.504517 569.235168,499.555664 
	C569.457886,502.708832 569.564087,505.870117 569.733826,509.027130 
	C569.934753,512.764587 570.344116,515.431519 575.172241,516.994446 
	C579.414307,518.367737 578.114319,524.082275 578.233704,528.084778 
	C578.328613,531.266357 575.764160,531.189575 573.593750,531.164368 
	C570.860046,531.132690 570.316589,532.831604 570.096375,535.024780 
	C569.001038,545.934692 568.163208,556.867126 566.404785,567.711670 
	C565.455811,573.563965 562.999268,579.156677 562.997375,585.611816 
	C568.926392,586.489197 574.580566,586.171631 580.167908,585.941223 
	C585.167786,585.735046 586.983337,587.855591 587.275085,592.591125 
	C587.807129,601.224976 587.959229,601.212769 579.425171,601.208801 
	C573.926331,601.206238 568.419128,601.399048 562.931458,601.152832 
	C559.058594,600.979065 556.782471,602.332703 555.284485,605.993835 
	C549.002075,621.348328 540.970642,635.680298 529.482422,647.822327 
	C527.212708,650.221191 524.458984,652.162109 522.364258,654.913391 
	C528.833374,654.853333 534.345215,652.367981 539.710815,649.873169 
	C558.858154,640.970215 575.442078,628.651489 588.614990,611.979309 
	C590.113647,610.082520 591.825439,608.142395 594.411438,610.214111 
	C600.938232,615.443176 607.826172,615.256104 615.036865,611.954102 
	C615.433044,611.772644 615.984680,611.930664 616.529175,611.930664 
	C617.622803,613.888062 616.123413,615.083008 615.239868,616.328125 
	C597.295349,641.615784 574.408081,660.945007 545.898499,673.352661 
	C519.516541,684.834351 491.968262,688.433350 463.394958,685.491760 
	C456.403290,684.771912 449.667450,682.932190 442.343292,681.930908 
M424.334595,607.300720 
	C430.385010,620.625305 438.326111,632.683716 449.265564,642.463257 
	C455.944763,648.434265 463.373901,653.433716 472.376282,654.458008 
	C474.064697,653.158630 473.845001,651.733948 473.845245,650.451294 
	C473.848114,635.638123 473.744110,620.824524 473.828979,606.011963 
	C473.850616,602.235718 472.169464,601.158813 468.658936,601.186584 
	C454.677643,601.297058 440.694946,601.218384 426.712830,601.245361 
	C425.443665,601.247864 423.994965,600.930176 423.104187,602.341003 
	C422.773438,603.918884 423.446411,605.267761 424.334595,607.300720 
M489.046509,634.499634 
	C489.046509,641.036804 489.046509,647.573975 489.046509,654.085571 
	C512.307495,653.336670 536.977478,617.760742 540.005615,601.837830 
	C539.420776,601.658447 538.815491,601.311951 538.209290,601.310242 
	C523.229858,601.268799 508.250244,601.296570 493.271027,601.227539 
	C489.836670,601.211670 489.102631,603.157715 489.107025,606.036499 
	C489.121063,615.190857 489.071289,624.345337 489.046509,634.499634 
M367.829956,602.319641 
	C367.863312,604.508179 369.411163,605.963318 370.589569,607.480530 
	C387.064911,628.693298 407.711090,644.346130 432.898407,653.862427 
	C435.050262,654.675415 437.173279,656.054138 440.231140,655.348022 
	C436.167542,650.816467 432.368378,646.884644 428.914764,642.669617 
	C419.672394,631.389709 412.983887,618.613281 407.445160,605.193726 
	C406.685059,603.352051 406.108765,601.256836 403.543396,601.283142 
	C391.770081,601.403992 379.983917,600.581177 367.829956,602.319641 
z"/>
<path fill="#34BBAD" opacity="1.000000" stroke="none" 
	d="
M367.002716,671.193604 
	C345.408783,675.171265 324.120667,678.206055 302.772919,673.153259 
	C282.771088,668.419006 268.643555,657.017639 262.574005,636.443054 
	C256.846619,617.028320 260.215759,598.947998 268.934967,581.427490 
	C281.404663,556.370789 301.242157,537.706238 322.605560,520.455444 
	C352.923096,495.974426 386.573700,476.745392 420.771912,458.387299 
	C423.198303,457.084839 424.946930,457.161438 426.765839,459.504761 
	C433.705719,468.445465 440.818939,477.251373 447.804688,486.156830 
	C449.622223,488.473816 450.058472,491.345703 450.196411,494.184692 
	C450.624420,502.992828 450.767548,511.818573 451.382080,520.612305 
	C451.679932,524.874573 450.043396,526.894653 446.104645,528.228882 
	C425.942902,535.058838 405.888336,542.250061 386.587006,551.250366 
	C362.433350,562.513306 338.659790,574.524536 318.783661,592.815430 
	C309.540741,601.321228 302.718506,611.332275 299.096832,623.517212 
	C296.387695,632.632080 298.784637,641.006653 306.737000,646.900330 
	C315.683075,653.530396 325.972351,657.360291 336.515839,660.553955 
	C348.335480,664.134155 360.377289,666.500122 372.756042,666.936157 
	C373.910187,666.976807 375.065491,667.101746 376.103455,668.312195 
	C373.703857,671.143616 370.095276,669.799805 367.002716,671.193604 
z"/>
<path fill="#34BBAD" opacity="1.000000" stroke="none" 
	d="
M337.592712,447.709290 
	C359.711731,407.361908 392.507294,380.565369 436.152893,367.312866 
	C460.624237,359.882385 485.591888,359.565186 510.724182,363.490845 
	C513.095886,363.861328 514.667847,365.000824 515.936035,366.892273 
	C524.178894,379.186249 532.368835,391.516846 540.746948,403.718201 
	C542.979675,406.969788 542.291443,408.803619 538.922729,410.266876 
	C535.719177,411.658447 532.349365,412.832977 529.448059,414.713104 
	C525.735901,417.118774 523.528198,415.829529 521.016602,412.898987 
	C513.896179,404.590912 505.711639,397.689697 495.056122,394.194336 
	C490.434113,392.678131 489.250549,393.199860 489.182190,398.044464 
	C489.043610,407.869690 489.173340,417.698425 489.096191,427.524933 
	C489.065857,431.387604 490.170532,436.066437 484.448273,437.032379 
	C480.760071,437.654999 473.878113,431.088226 473.791565,426.806213 
	C473.623291,418.481750 473.737274,410.151337 473.755798,401.823425 
	C473.776215,392.646698 472.762054,391.899200 464.541473,395.866272 
	C458.398865,398.830536 452.030823,401.747711 447.632355,407.151123 
	C441.011169,415.285065 431.919556,413.140045 422.030487,414.628326 
	C427.265808,405.601776 433.534302,399.404816 439.960938,393.141418 
	C425.994385,389.855530 376.691071,425.513397 367.237579,446.158569 
	C379.076569,446.158569 390.481567,446.158569 401.732605,446.158569 
	C401.906189,447.603088 402.074768,448.144897 401.964325,448.209442 
	C392.820587,453.554993 384.819580,461.444733 373.166443,461.238312 
	C372.333801,461.223572 371.500824,461.231354 370.668030,461.224365 
	C356.249329,461.103516 356.054626,461.173584 351.629181,475.148071 
	C350.840912,477.637268 349.942474,479.723816 347.715363,481.237091 
	C340.143616,486.381958 332.639343,491.625946 325.094940,496.811249 
	C324.146881,497.462769 323.162994,498.169342 321.188385,497.487549 
	C323.595581,480.071930 329.592346,463.771667 337.592712,447.709290 
z"/>
<path fill="#34BBAD" opacity="1.000000" stroke="none" 
	d="
M370.770996,732.986572 
	C370.767395,724.657898 370.729156,716.826843 370.779114,708.996460 
	C370.794525,706.579346 370.184448,703.500244 373.614929,702.944641 
	C376.830841,702.423950 380.273315,701.893921 382.496613,705.579407 
	C385.506775,710.569275 388.739929,715.424377 391.850037,720.354553 
	C392.639313,721.605652 393.150085,723.076660 395.696991,723.986816 
	C395.696991,718.627502 395.809204,713.602417 395.659821,708.585144 
	C395.549500,704.878784 396.306061,702.602112 400.807129,702.597168 
	C405.366516,702.592102 406.472565,704.664429 406.407776,708.742493 
	C406.241028,719.236389 406.347473,729.734497 406.331635,740.230957 
	C406.327881,742.725098 406.695465,745.609741 403.261597,746.128723 
	C399.957214,746.628296 396.629547,746.904785 394.500061,743.198853 
	C391.763397,738.436218 388.793213,733.805725 385.846191,729.167480 
	C384.999207,727.834351 384.478790,726.092041 382.340820,725.643311 
	C381.440247,730.466309 381.696014,735.241455 381.870483,740.011597 
	C382.021423,744.139343 380.782410,746.491455 375.912537,746.458740 
	C370.938141,746.425293 370.580872,743.670349 370.734558,739.981873 
	C370.824677,737.819336 370.763519,735.650513 370.770996,732.986572 
z"/>
<path fill="#34BBAD" opacity="1.000000" stroke="none" 
	d="
M579.395874,733.979553 
	C581.355530,736.868347 583.236328,739.416260 584.887512,742.105225 
	C586.425964,744.610718 585.790588,746.059814 582.619873,746.357910 
	C577.796143,746.811523 573.873108,746.009277 571.366760,741.162964 
	C569.115479,736.809814 565.244812,733.279541 565.793518,727.668762 
	C566.064819,724.894836 566.291748,722.834961 569.773315,722.644287 
	C572.774109,722.480042 574.771851,720.729980 574.804504,717.534790 
	C574.839478,714.106384 572.211365,713.145142 569.523560,712.568604 
	C563.374268,711.249451 561.205017,712.993042 561.177612,719.140564 
	C561.144897,726.458252 561.096924,733.776367 561.144226,741.093689 
	C561.168335,744.824097 559.637146,746.393677 555.735779,746.426575 
	C551.948669,746.458374 550.121338,745.178711 550.117920,741.357178 
	C550.107849,730.048462 550.032410,718.739746 550.050171,707.431152 
	C550.053711,705.182922 550.469604,702.832825 553.397095,702.798767 
	C560.037598,702.721375 566.695740,702.219116 573.317078,703.114746 
	C579.512390,703.952820 583.628174,707.251160 585.435547,713.378967 
	C587.337280,719.826477 584.833130,724.817505 580.214661,728.916138 
	C578.428772,730.501038 577.364685,731.633423 579.395874,733.979553 
z"/>
<path fill="#34BBAD" opacity="1.000000" stroke="none" 
	d="
M481.028656,710.265869 
	C481.641235,712.660461 482.987274,715.104980 480.207245,716.289246 
	C477.190277,717.574463 473.976562,717.708069 471.448517,714.969910 
	C469.316864,712.661133 466.933533,711.011475 463.622345,711.412537 
	C461.910278,711.620056 460.214417,712.181946 459.688141,713.994019 
	C459.080109,716.087708 460.846130,717.119629 462.295410,717.696960 
	C466.141968,719.229065 470.122009,720.422913 474.032043,721.799316 
	C480.235535,723.982910 483.190979,727.789246 483.122620,733.424622 
	C483.046722,739.684265 479.441803,744.374084 473.245056,746.240723 
	C466.363190,748.313599 459.760284,747.639038 453.502228,744.088562 
	C451.572937,742.993958 450.153320,741.283813 449.202728,739.330750 
	C447.993225,736.845764 445.991608,733.631409 449.271606,731.845398 
	C452.261353,730.217468 456.269318,729.789368 458.486359,733.727783 
	C460.688812,737.640137 464.065735,738.117737 467.895111,737.581055 
	C469.785004,737.316223 471.472504,736.449280 471.681824,734.235840 
	C471.876984,732.172302 470.330658,731.226501 468.745911,730.688904 
	C464.973938,729.409485 461.079529,728.480835 457.336456,727.128601 
	C450.934448,724.815552 447.807068,720.645508 447.964630,715.081177 
	C448.135529,709.046753 451.876160,704.606445 458.412140,702.679443 
	C467.460327,700.011841 476.024963,702.770020 481.028656,710.265869 
z"/>
<path fill="#34BBAD" opacity="1.000000" stroke="none" 
	d="
M636.058838,737.579651 
	C629.864258,748.385498 614.962830,750.732727 606.204163,742.554993 
	C604.898254,741.335815 603.436523,739.806152 603.033936,738.176270 
	C600.819641,729.210449 600.301270,719.977417 603.077637,711.202209 
	C605.272644,704.264160 614.862793,700.437744 622.739380,702.015564 
	C632.224182,703.915466 637.228394,709.371094 637.181274,718.333313 
	C637.148132,724.626282 638.112732,730.999268 636.058838,737.579651 
M625.134033,714.613342 
	C622.873901,712.068115 620.249329,710.672302 616.780151,711.991150 
	C613.424133,713.267029 612.666199,716.205078 612.515320,719.253296 
	C612.310730,723.387573 612.142700,727.536255 612.810242,731.675903 
	C613.437500,735.565369 615.591797,737.696838 619.500732,737.619446 
	C623.350281,737.543274 625.903076,735.294617 626.255188,731.564392 
	C626.766663,726.146667 627.402222,720.637085 625.134033,714.613342 
z"/>
<path fill="#34BBAD" opacity="1.000000" stroke="none" 
	d="
M336.054565,747.336975 
	C326.882233,747.013611 317.640564,741.866089 318.703430,729.508667 
	C319.002075,726.036377 318.735779,722.516846 318.759399,719.019165 
	C318.843750,706.535217 329.421356,698.824646 341.609833,702.351990 
	C350.193848,704.836304 354.183136,710.157166 354.218323,719.187805 
	C354.230652,722.352539 354.221893,725.517395 354.218994,728.682190 
	C354.207886,740.745300 348.635468,746.611694 336.054565,747.336975 
M329.292328,729.137085 
	C329.576355,734.708130 331.945312,737.611389 336.229492,737.638855 
	C340.365570,737.665344 343.129822,734.900574 343.542938,729.752380 
	C343.834991,726.112732 343.805176,722.415955 343.545349,718.771423 
	C343.238464,714.466919 339.939728,711.247375 336.111237,711.485107 
	C331.737793,711.756775 329.621521,714.531799 329.403809,718.739685 
	C329.240448,721.896606 329.319916,725.066162 329.292328,729.137085 
z"/>
<path fill="#34BBAD" opacity="1.000000" stroke="none" 
	d="
M508.621155,707.688599 
	C509.941589,703.031372 513.131287,702.606812 516.945312,702.635132 
	C520.815430,702.663818 522.000305,705.073608 523.090759,708.033630 
	C526.996582,718.635986 531.039856,729.188232 534.862610,739.820068 
	C535.562378,741.766418 537.626648,744.754028 534.449829,745.827271 
	C531.568481,746.800659 527.806274,747.727783 525.503662,743.970154 
	C524.404419,742.176270 523.907410,739.634216 521.272278,739.514893 
	C517.139771,739.327881 512.958801,738.803955 508.874359,739.817200 
	C507.441071,740.172791 507.301971,741.834717 506.746887,743.019043 
	C506.020905,744.567932 505.127350,746.074890 503.221985,746.171936 
	C500.785828,746.295898 497.922638,747.300232 496.055542,745.400330 
	C494.204926,743.517273 496.297638,741.319275 496.980896,739.408691 
	C500.728790,728.928162 504.628937,718.502014 508.621155,707.688599 
M519.384827,728.311096 
	C519.040466,724.903381 517.890625,721.818420 515.875122,718.424377 
	C513.862549,722.036743 511.667725,725.276367 512.910156,728.536682 
	C513.734070,730.698730 516.862366,729.907349 519.384827,728.311096 
z"/>
<path fill="#34BBAD" opacity="1.000000" stroke="none" 
	d="
M304.452148,707.003906 
	C301.696289,711.427979 299.286194,715.615540 296.516937,719.550232 
	C294.260284,722.756592 294.550415,725.555786 296.558655,728.697021 
	C298.973541,732.474304 301.098541,736.436707 303.358398,740.313477 
	C304.275909,741.887390 305.334900,743.418579 304.687622,745.359070 
	C297.534119,747.691833 295.431396,746.958862 291.885040,741.070312 
	C290.621979,738.973022 289.783020,736.562439 287.508057,734.845215 
	C284.979340,736.736023 284.009216,739.627136 282.498840,742.116455 
	C280.153900,745.981079 276.055145,747.598083 271.893494,746.215332 
	C268.874542,745.212158 269.899872,743.196167 270.902740,741.442688 
	C273.213043,737.403259 275.502228,733.333801 278.114471,729.490234 
	C280.716675,725.661438 280.507172,722.288025 277.807343,718.625244 
	C275.446167,715.421997 273.444550,711.951416 271.328094,708.571350 
	C270.382904,707.061829 269.007233,705.639038 269.861450,703.591003 
	C279.860718,699.137756 282.643951,707.622559 286.892578,713.586487 
	C290.252014,711.838989 291.106659,708.598145 292.887146,706.140137 
	C295.116394,703.062439 300.182953,701.543396 303.497314,702.966797 
	C305.408234,703.787598 305.211700,705.134216 304.452148,707.003906 
z"/>
<path fill="#34BBAD" opacity="1.000000" stroke="none" 
	d="
M664.276855,709.730225 
	C665.726562,712.356323 667.031372,714.643921 668.493469,717.207336 
	C672.203735,714.714233 673.145996,710.831848 674.704773,707.530823 
	C676.683167,703.341125 679.717773,702.246277 683.958862,702.673523 
	C687.378784,703.018005 688.504578,704.216919 686.638611,707.477478 
	C684.165039,711.799988 682.040710,716.329834 679.440063,720.570496 
	C675.689941,726.685364 673.419495,733.050232 674.319153,740.356445 
	C674.817444,744.402771 673.216187,746.433960 668.713928,746.451599 
	C664.149597,746.469421 663.120178,744.035767 663.737427,740.466064 
	C665.816711,728.441101 657.174438,720.451843 652.904114,710.812256 
	C651.827515,708.381958 648.198242,705.947632 651.606140,703.144348 
	C654.233887,700.982849 660.380310,703.106934 662.456238,706.337646 
	C663.082458,707.312256 663.577087,708.371338 664.276855,709.730225 
z"/>
<path fill="#34BBAD" opacity="1.000000" stroke="none" 
	d="
M555.844055,783.721497 
	C552.693420,780.966492 551.986511,776.821533 548.433777,774.116760 
	C548.186096,776.821106 548.029724,779.073608 547.759766,781.312378 
	C547.529114,783.224670 546.483887,784.263306 544.428345,784.219116 
	C542.341370,784.174194 541.249573,782.952026 541.245178,781.122131 
	C541.230103,774.823792 541.374268,768.523926 541.549805,762.227173 
	C541.591125,760.745178 542.539124,759.838013 544.081604,759.607483 
	C545.921936,759.332458 547.231750,760.023438 548.386597,761.465820 
	C550.440796,764.031372 551.351685,767.385620 554.773254,770.367371 
	C554.773254,767.678284 554.753052,765.784912 554.778503,763.892029 
	C554.807617,761.731323 555.230652,759.786438 557.979614,759.819580 
	C560.750732,759.853088 561.080933,761.925659 561.106934,764.004089 
	C561.173523,769.322998 561.120300,774.643250 561.157654,779.962646 
	C561.182068,783.439880 559.690491,784.926697 555.844055,783.721497 
z"/>
<path fill="#34BBAD" opacity="1.000000" stroke="none" 
	d="
M445.291779,777.876892 
	C445.189270,779.671509 445.210449,781.014526 444.975983,782.311462 
	C444.676392,783.968506 443.361023,784.262268 441.925537,784.138367 
	C440.120270,783.982605 439.188873,782.741089 439.149567,781.145691 
	C438.998383,775.005249 438.985443,768.860840 438.981262,762.717896 
	C438.980591,761.715515 439.421875,760.806213 440.348572,760.208618 
	C442.593323,758.760925 454.402313,759.710083 456.235718,761.719360 
	C458.993835,764.741821 459.749634,768.695801 457.360687,771.784424 
	C454.823120,775.065247 454.860199,777.441833 457.215668,780.438843 
	C457.745972,781.113525 457.652985,782.278015 457.871613,783.336304 
	C453.225433,785.693604 451.375336,782.740356 449.630798,779.564575 
	C447.934113,776.475891 445.827545,773.355469 449.928101,770.478088 
	C451.267303,769.538391 452.267273,768.476807 451.430115,766.769653 
	C450.740692,765.363770 449.369080,765.239380 447.984131,765.369263 
	C446.132019,765.542847 445.419525,766.789307 445.373322,768.437073 
	C445.289551,771.424622 445.319427,774.415405 445.291779,777.876892 
z"/>
<path fill="#34BBAD" opacity="1.000000" stroke="none" 
	d="
M512.678711,762.322876 
	C514.096863,764.157227 515.084534,765.962036 513.495361,767.545959 
	C511.583954,769.450806 509.872406,767.857361 508.276154,766.606995 
	C506.537567,765.245178 504.489594,764.580994 502.914581,766.429504 
	C500.392273,769.389709 500.930389,773.073730 501.892822,776.391541 
	C502.539001,778.618958 504.595428,779.149475 507.105774,777.432312 
	C505.921356,775.603882 503.076202,773.547668 505.669220,771.379944 
	C507.562866,769.796997 510.447510,769.629028 512.811462,770.708862 
	C515.698120,772.027527 515.287598,774.765564 514.730591,777.240295 
	C513.721008,781.726379 509.737030,784.396240 504.548126,784.234436 
	C499.827240,784.087219 496.054596,781.146851 495.216461,776.732605 
	C494.910645,775.121887 494.990784,773.421692 495.025909,771.765076 
	C495.266663,760.409546 502.255707,756.507629 512.678711,762.322876 
z"/>
<path fill="#34BBAD" opacity="1.000000" stroke="none" 
	d="
M523.244263,784.302917 
	C519.986877,784.359314 518.903503,782.754822 518.891418,780.217896 
	C518.865234,774.721985 518.878845,769.225647 518.902771,763.729675 
	C518.905579,763.072571 518.961609,762.375244 519.184204,761.766479 
	C520.105347,759.247864 522.386902,759.524292 524.262756,759.753967 
	C528.392883,760.259521 533.372070,757.686707 536.467102,761.460693 
	C538.333008,763.735901 535.636841,764.934265 533.170227,765.277832 
	C530.671265,765.625916 527.497437,763.872620 525.699768,767.230530 
	C527.406677,769.642700 529.779297,768.555542 531.792419,768.780762 
	C533.756104,769.000488 535.630371,769.317200 535.584412,771.755432 
	C535.542114,773.998291 533.682800,774.003052 531.975769,774.289490 
	C529.754944,774.662048 525.752625,772.966003 525.855164,776.459229 
	C525.968323,780.311829 530.070312,778.152161 532.403564,778.608521 
	C534.440613,779.006836 537.184875,778.321106 537.091858,781.615784 
	C536.997925,784.938904 534.232239,784.216797 532.206177,784.291992 
	C529.378662,784.396912 526.544250,784.314575 523.244263,784.302917 
z"/>
<path fill="#34BBAD" opacity="1.000000" stroke="none" 
	d="
M406.020813,760.513245 
	C411.116272,763.762878 413.249512,774.627014 410.179199,779.849731 
	C407.870178,783.777466 401.673157,785.306641 396.838440,783.194702 
	C395.426941,782.578125 394.259705,781.709167 393.346832,780.487061 
	C390.977142,777.314758 390.717712,767.060486 393.117798,763.749268 
	C396.326111,759.322998 400.810577,759.097473 406.020813,760.513245 
M399.408447,766.258667 
	C397.019165,769.382324 398.018677,772.908508 398.474030,776.247131 
	C398.723572,778.077087 400.608582,779.096619 402.309753,778.265320 
	C406.494751,776.220337 404.698090,772.196716 404.752838,768.968750 
	C404.801636,766.090271 402.998779,764.825439 399.408447,766.258667 
z"/>
<path fill="#34BBAD" opacity="1.000000" stroke="none" 
	d="
M490.416077,774.703247 
	C490.847809,775.847473 491.229370,776.608398 491.399353,777.414001 
	C491.852600,779.562378 493.859161,782.104675 491.426361,783.791199 
	C489.118347,785.391235 487.829620,782.662781 486.096954,781.497375 
	C483.156830,779.519897 479.853638,779.240417 477.175171,782.225159 
	C475.969482,783.568787 474.776154,784.752808 472.947388,783.829407 
	C470.980042,782.836060 471.504547,780.925659 472.022736,779.398865 
	C473.893372,773.887695 475.901642,768.422485 477.909180,762.958740 
	C478.657196,760.923035 479.964386,759.629211 482.385620,759.736633 
	C484.627411,759.836060 485.584534,761.228149 486.239899,763.054199 
	C487.589203,766.814026 488.926910,770.578064 490.416077,774.703247 
z"/>
<path fill="#34BBAD" opacity="1.000000" stroke="none" 
	d="
M434.827362,776.265564 
	C432.546600,782.290100 428.126068,785.074524 422.949921,784.125916 
	C417.373383,783.103943 415.133942,780.093994 415.034271,773.273132 
	C414.985779,769.956116 415.023376,766.631836 415.197144,763.319946 
	C415.301758,761.325317 416.191193,759.729248 418.567505,759.876953 
	C420.758087,760.013184 421.164032,761.640930 421.194366,763.413330 
	C421.245483,766.400574 421.184265,769.390137 421.257446,772.376526 
	C421.322449,775.028931 421.100555,778.341980 424.803253,778.360168 
	C428.300232,778.377380 428.641052,775.355652 428.626007,772.523254 
	C428.610168,769.535461 428.620453,766.546875 428.677521,763.559631 
	C428.714905,761.602539 429.110687,759.850403 431.637360,759.834534 
	C434.037201,759.819458 434.859406,761.442322 434.911560,763.401978 
	C435.021942,767.546326 434.913361,771.696411 434.827362,776.265564 
z"/>
<path fill="#34BBAD" opacity="1.000000" stroke="none" 
	d="
M576.631714,759.799316 
	C579.186951,760.344788 581.237976,761.015259 582.599060,762.905457 
	C583.496704,764.152100 584.349854,765.517456 583.235168,766.995056 
	C582.147705,768.436584 580.603149,768.336609 579.192017,767.530151 
	C577.086182,766.326660 574.980530,763.930603 572.592773,766.443604 
	C570.003113,769.169250 570.799622,772.871216 571.637207,775.937927 
	C572.481140,779.027771 575.134033,779.372498 577.453430,777.082275 
	C579.270569,775.287964 581.246033,773.492554 583.242493,775.998779 
	C585.312439,778.597168 582.981506,780.712158 581.024658,782.205139 
	C577.535706,784.867004 573.653259,784.924011 569.704834,783.126526 
	C566.045044,781.460449 564.745056,778.440552 564.792908,774.630920 
	C564.807434,773.466064 564.777039,772.300781 564.783447,771.135742 
	C564.829956,762.687378 567.602600,759.926331 576.631714,759.799316 
z"/>
<path fill="#34BBAD" opacity="1.000000" stroke="none" 
	d="
M587.257324,762.478577 
	C588.861511,758.029968 591.322205,759.365784 593.481140,761.470825 
	C594.735657,762.694092 595.433777,764.488098 596.467102,766.162842 
	C600.447327,765.208923 600.395691,756.749207 606.739197,760.697327 
	C607.234619,763.553223 605.307373,765.497437 604.154846,767.557861 
	C601.771606,771.818726 599.680420,776.015869 600.182007,781.120056 
	C600.371155,783.044983 599.203491,784.171143 597.137390,784.209656 
	C595.353394,784.242920 593.908875,783.372009 594.102966,781.699219 
	C594.967407,774.248291 590.125854,768.941467 587.257324,762.478577 
z"/>
<path fill="#34BBAD" opacity="1.000000" stroke="none" 
	d="
M379.112305,784.055359 
	C374.989014,780.735901 377.175903,776.468628 376.814209,772.690735 
	C376.474976,769.147095 377.717133,765.097961 372.150513,764.544800 
	C371.034271,764.433838 370.292694,763.162048 370.434753,761.826111 
	C370.585632,760.406982 371.602753,759.815491 372.861633,759.799927 
	C377.354919,759.744385 381.849548,759.746765 386.343018,759.790283 
	C387.560822,759.802063 388.682648,760.216370 388.949951,761.627930 
	C389.244019,763.180847 388.498077,764.529236 387.092590,764.703247 
	C382.740845,765.241760 383.051361,768.296814 383.092102,771.358704 
	C383.131927,774.354675 383.162109,777.355713 383.031006,780.347290 
	C382.937439,782.481873 382.325928,784.377991 379.112305,784.055359 
z"/>
</svg>