<svg xmlns="http://www.w3.org/2000/svg" xml:space="preserve" viewBox="0 0 992 992">
  <path fill="#34BBAD" d="M626.987549 579.842163c-5.956421 4.868042-11.585266 9.55719-17.348694 14.074646-3.169617 2.484314-4.403809 1.773621-4.957642-2.361328-3.223755-24.069092-6.696777-48.1073-9.643554-72.210022-1.977906-16.177032-4.109742-32.329163-6.2099-48.488037-.545044-4.194031-2.009827-5.121124-5.770386-4.070953-13.2854 3.709991-26.562622 7.458038-39.90802 10.94223-14.158936 3.696533-28.330749 7.391327-42.625397 10.495117-5.147522 1.117645-7.301056 3.696442-8.183105 8.447143-2.275971 12.257935-4.704834 24.48761-7.104859 36.722291-.621612 3.16864-9.945617 11.538024-12.881042 11.583251-2.411896.037232-2.466248-1.839904-2.560913-3.494751-.351532-6.144897-.871124-12.292846-.894501-18.441284-.049469-13.004181-1.702606-25.906067-2.169647-38.877502-.073792-2.048218-1.233917-3.368866-2.358399-4.80246-11.197998-14.276459-22.402954-28.547485-33.585021-42.836365-2.861054-3.655975-2.317231-4.510467 2.285583-5.726837 6.760223-1.786529 12.355377-.760101 17.951202 3.941284 8.780915 7.377259 18.329255 13.83368 27.367157 20.916687 2.868409 2.247956 5.32425 2.092987 8.211609.510498 25.550629-14.003845 51.51474-27.19696 77.971222-39.403228 4.566284-2.10672 2.568482-4.66687.91803-7.135346-9.439697-14.118347-18.969543-28.176452-28.474915-42.250885-13.317016-19.718261-26.642211-39.43103-39.949524-59.155884-.54898-.81372-1.157562-1.659576-.894714-2.817199 1.070404-1.638642 2.853455-1.438385 4.462494-1.475159 7.995789-.1828 15.994476-.244842 23.989288-.457977 2.035035-.05423 3.404663.784942 4.794922 2.145263 28.335449 27.724396 56.748413 55.369843 85.011597 83.167572 3.195312 3.14264 5.824097 4.392579 10.422607 2.612763 14.103455-5.458618 28.525086-10.012634 43.20398-13.751007 12.930115-3.29306 25.978821-6.241425 39.289062-6.636475 10.389771-.308349 20.829285 1.007355 30.779358 4.667847 3.726502 1.37085 4.20282 3.47525 2.583008 6.972198-6.204346 13.394715-16.818542 22.604187-28.777039 30.45105-20.405883 13.389862-42.305847 23.844025-65.224975 32.142853-5.142944 1.862183-7.315064 4.517578-7.676941 10.43988-1.825806 29.880768-4.41803 59.713837-6.52655 89.578766-.667542 9.4552-.920472 18.934204-2.119934 28.35553-.317994 2.498108-1.186036 4.450562-3.395447 6.22583z"/>
  <path fill="#34BBAD" d="M442.343292 681.930908c-22.888-6.08612-43.554504-15.783569-61.747345-30.413635-16.65625-13.394409-30.478241-29.235718-40.961364-47.941895-1.485413-2.650451-1.609284-4.55542 1.096344-6.31958 5.016601-3.271118 9.982604-6.619934 14.965606-9.942505 1.919892-1.28009 4.080109-1.237487 6.260864-1.238769 11.330719-.006714 22.661652-.09668 33.992035-.046387 3.642975.016175 5.476258-.882385 3.865693-4.965881-.784028-1.987854-1.005494-4.199463-1.463654-6.313599-1.913666-8.830566-.206024-11.394348 8.608215-13.566101 3.205323-.789795 3.675293 1.169068 4.200043 3.401245 1.330933 5.661499 2.773193 11.298462 3.994507 16.983216.667023 3.104553 2.26297 4.49768 5.505981 4.483276 16.162445-.07196 32.325684-.070251 48.488037.014221 3.412018.017822 4.944764-1.318298 4.664124-4.752014-.108154-1.323547.227936-2.711121-.030823-3.990051-1.931793-9.549011 1.88794-15.666443 10.689118-19.507141 3.375579-1.473023 4.673065-1.237244 4.686676 2.45697.025177 6.831482.113464 13.667419-.095276 20.493225-.117646 3.846252 1.301178 5.38385 5.203308 5.348633 15.995117-.144654 31.991882-.117493 47.988037-.132202 2.733337-.002503 4.677673-.646973 5.54657-3.769715 4.122436-14.815368 6.253845-29.901611 6.95404-45.243347.197449-4.325745-1.237793-5.908142-5.662292-5.836609-13.160156.212647-26.326233.089783-39.489868.057007-5.912415-.014648-6.09433-.266296-5.013489-5.900635.344635-1.79657.864044-3.568664 1.081451-5.37854.366547-3.051269 2.39325-3.935608 4.94635-3.668152 13.478058 1.411805 26.966095-1.178955 40.436127.184204 3.039307.307557 3.634583-1.490478 3.668152-4.005981.064514-4.837799-.050171-9.654541-1.001221-14.416626-.755676-3.7836.264099-6.266388 4.600281-6.360992.165955-.003601.33429-.021058.496399-.055817 9.693665-2.08078 9.709473-2.082214 10.41925 7.968933.222718 3.153168.328919 6.314453.498658 9.471466.200927 3.737457.61029 6.404389 5.438415 7.967316 4.242066 1.373291 2.942078 7.087829 3.061463 11.090332.094909 3.181579-2.469544 3.104797-4.639954 3.07959-2.733704-.031678-3.277161 1.667236-3.497375 3.860412-1.095337 10.909912-1.933167 21.842346-3.69159 32.68689-.948974 5.852295-3.405517 11.445007-3.40741 17.900146 5.929017.877381 11.583191.559815 17.170533.329407 4.999878-.206177 6.815429 1.914368 7.107177 6.649902.532044 8.633851.684144 8.621644-7.849914 8.617676-5.49884-.002563-11.006043.190247-16.493713-.055969-3.872864-.173767-6.148987 1.179871-7.646973 4.841003-6.28241 15.354493-14.313843 29.686463-25.802063 41.828492-2.269714 2.398864-5.023438 4.339782-7.118164 7.091064 6.469116-.060058 11.980957-2.54541 17.346557-5.040222 19.147339-8.902954 35.731263-21.22168 48.904175-37.89386 1.498657-1.896789 3.210449-3.836914 5.796448-1.765198 6.526794 5.229065 13.414734 5.041993 20.625427 1.739991.396179-.181458.947815-.023438 1.49231-.023438 1.093628 1.957398-.405762 3.152344-1.289307 4.397461-17.944519 25.287659-40.831787 44.616882-69.341369 57.024536-26.381958 11.48169-53.930237 15.080689-82.503541 12.139099-6.991668-.719848-13.727508-2.55957-21.051666-3.560852m-18.008697-74.630188c6.050415 13.324585 13.991516 25.382996 24.930969 35.162537 6.679199 5.971008 14.108337 10.970459 23.110718 11.994751 1.688415-1.299378 1.468719-2.72406 1.468963-4.006714.002869-14.813171-.101135-29.62677-.016266-44.439331.021637-3.776245-1.659515-4.85315-5.170043-4.825379-13.981293.110474-27.96399.0318-41.946106.058777-1.269165.002503-2.717865-.315185-3.608643 1.095642-.330749 1.577881.342224 2.926758 1.230408 4.959717m64.711914 27.198914v19.585937c23.260986-.748901 47.930969-36.324829 50.959106-52.247741-.584839-.179383-1.190124-.525879-1.796325-.527588-14.979432-.041443-29.959046-.013672-44.938263-.082703-3.434357-.015869-4.168396 1.930176-4.164002 4.80896.014038 9.154358-.035736 18.308838-.060516 28.463135m-121.216553-32.179993c.033356 2.188538 1.581207 3.643677 2.759613 5.160889 16.475342 21.212768 37.121521 36.8656 62.308838 46.381897 2.151855.812988 4.274872 2.191711 7.332733 1.485595-4.063598-4.531555-7.862762-8.463378-11.316376-12.678405-9.24237-11.279908-15.930877-24.056336-21.469604-37.475891-.760101-1.841675-1.336395-3.93689-3.901764-3.910584-11.773315.12085-23.559479-.701965-35.71344 1.036499z"/>
  <path fill="#34BBAD" d="M367.002716 671.193604c-21.593933 3.977661-42.882049 7.012451-64.229797 1.959655-20.001831-4.734253-34.129364-16.13562-40.198914-36.710205-5.727386-19.414734-2.358246-37.495056 6.360962-55.015564 12.469696-25.056701 32.30719-43.721252 53.670593-60.972046 30.317536-24.481018 63.96814-43.710052 98.166352-62.068145 2.426391-1.30246 4.175018-1.225861 5.993927 1.117462 6.93988 8.940704 14.0531 17.746612 21.038849 26.652069 1.817535 2.316986 2.253784 5.188873 2.391723 8.027862.428009 8.808136.571137 17.633881 1.185669 26.427613.297852 4.262268-1.338684 6.282348-5.277435 7.616577-20.161743 6.829956-40.216309 14.021179-59.517639 23.021484-24.153656 11.26294-47.927216 23.27417-67.803345 41.565064-9.24292 8.505798-16.065155 18.516845-19.686829 30.701782-2.709137 9.114868-.312195 17.489441 7.640168 23.383118 8.946075 6.630066 19.235351 10.459961 29.778839 13.653625 11.819641 3.5802 23.86145 5.946167 36.240203 6.382202 1.154145.04065 2.309449.165589 3.347413 1.376038-2.399598 2.831421-6.008179 1.48761-9.100739 2.881409z"/>
  <path fill="#34BBAD" d="M337.592712 447.70929c22.119019-40.347382 54.914582-67.143921 98.560181-80.396424 24.471344-7.430481 49.438995-7.74768 74.571289-3.822021 2.371704.370483 3.943665 1.509979 5.211853 3.401428 8.242859 12.293976 16.4328 24.624573 24.810913 36.825928 2.232727 3.251587 1.544495 5.085418-1.824219 6.548675-3.203552 1.391571-6.573364 2.566101-9.47467 4.446228-3.712158 2.40567-5.919861 1.116425-8.431457-1.814117-7.120423-8.308075-15.304963-15.20929-25.96048-18.704651-4.622009-1.516205-5.805573-.994476-5.873932 3.850128-.13858 9.825226-.00885 19.653961-.085999 29.480469-.030334 3.862671 1.074341 8.541504-4.647918 9.507446-3.688202.62262-10.57016-5.944153-10.656708-10.226166-.168274-8.324463-.054291-16.654876-.035767-24.982788.020417-9.176727-.993744-9.924225-9.214325-5.957153-6.142608 2.964264-12.51065 5.881439-16.909118 11.284851-6.621186 8.133942-15.712799 5.988922-25.601868 7.477203 5.235321-9.02655 11.503815-15.22351 17.930451-21.486908-13.966553-3.285888-63.269867 32.371979-72.723359 53.017151h34.495026c.173584 1.444519.342163 1.986328.23172 2.050873-9.143738 5.345551-17.144745 13.235291-28.797882 13.02887-.832642-.01474-1.665619-.006958-2.498413-.013947-14.418701-.120849-14.613404-.050781-19.038849 13.923706-.788269 2.489197-1.686707 4.575745-3.913818 6.08902-7.571747 5.144867-15.07602 10.388855-22.620423 15.574158-.948059.65152-1.931946 1.358093-3.906555.6763 2.407196-17.415619 8.403961-33.715882 16.404327-49.778259zm33.178284 285.277282c-.003601-8.328674-.04184-16.159729.008118-23.990112.015411-2.417114-.594666-5.496216 2.835815-6.051819 3.215912-.520691 6.658386-1.05072 8.881684 2.634766 3.010162 4.989868 6.243316 9.84497 9.353424 14.775146.789276 1.251099 1.300048 2.722107 3.846954 3.632263 0-5.359314.112213-10.384399-.03717-15.401672-.110321-3.70636.64624-5.983032 5.147308-5.987976 4.559387-.005066 5.665436 2.067261 5.600647 6.145325-.166748 10.493896-.060303 20.992004-.076141 31.488464-.003754 2.494141.36383 5.378784-3.070038 5.897766-3.304383.499573-6.63205.776062-8.761536-2.92987-2.736664-4.762635-5.706848-9.393128-8.65387-14.031373-.846984-1.333129-1.367401-3.075439-3.505371-3.524169-.900573 4.822998-.644806 9.598144-.470337 14.368286.15094 4.127746-1.088073 6.479858-5.957946 6.447143-4.974396-.033447-5.331665-2.788391-5.177979-6.476867.090119-2.162537.028961-4.33136.036438-6.995301zm208.624878.992981c1.959656 2.888794 3.840454 5.436707 5.491638 8.125672 1.538452 2.505493.903076 3.954589-2.267639 4.252685-4.82373.453613-8.746765-.348633-11.253113-5.194946-2.251281-4.35315-6.121948-7.883423-5.573242-13.494202.271301-2.773926.49823-4.833801 3.979797-5.024475 3.000794-.164245 4.998536-1.914307 5.031189-5.109497.034974-3.428406-2.593139-4.389648-5.280944-4.966186-6.149292-1.319153-8.318543.424438-8.345948 6.57196-.032715 7.317688-.080688 14.635803-.033386 21.953125.024109 3.730408-1.50708 5.299988-5.408447 5.332886-3.78711.031799-5.614441-1.247864-5.617859-5.069397-.010071-11.308716-.08551-22.617432-.067749-33.926026.00354-2.24823.419433-4.598327 3.346924-4.632385 6.640503-.077392 13.298645-.579651 19.919983.315979 6.195312.838074 10.311096 4.136414 12.118469 10.264221 1.901733 6.44751-.602417 11.438538-5.220886 15.537171-1.785889 1.5849-2.849976 2.717285-.818787 5.063415zm-98.367218-23.713684c.612579 2.394592 1.958618 4.839111-.821411 6.023377-3.016968 1.285217-6.230683 1.418823-8.758728-1.319336-2.131653-2.308777-4.514984-3.958435-7.826172-3.557373-1.712067.207519-3.407928.769409-3.934204 2.581482-.608032 2.093689 1.157989 3.12561 2.607269 3.702941 3.846558 1.532105 7.826599 2.725953 11.736633 4.102356 6.203492 2.183594 9.158936 5.98993 9.090577 11.625306-.075898 6.259643-3.680817 10.949462-9.877564 12.816101-6.881866 2.072876-13.484772 1.398315-19.742828-2.152161-1.929291-1.094604-3.348908-2.804749-4.2995-4.757812-1.209503-2.484986-3.21112-5.699341.068878-7.485352 2.989747-1.62793 6.997712-2.05603 9.214753 1.882385 2.202453 3.912354 5.579376 4.389954 9.408752 3.853272 1.889893-.264832 3.577393-1.131775 3.786713-3.345215.19516-2.063538-1.351166-3.009339-2.935913-3.546936-3.771973-1.279419-7.666382-2.208069-11.409455-3.560303-6.402008-2.313049-9.529388-6.483093-9.371826-12.047424.170899-6.034424 3.91153-10.474732 10.44751-12.401734 9.048187-2.667602 17.612823.090577 22.616516 7.586426zm155.030182 27.313782c-6.19458 10.805847-21.096008 13.153076-29.854675 4.975342-1.305909-1.219178-2.76764-2.748841-3.170227-4.378723-2.214295-8.965821-2.732666-18.198853.043701-26.974061 2.195007-6.938049 11.785156-10.764465 19.661743-9.186645 9.484802 1.899902 14.489014 7.35553 14.441894 16.317749-.033142 6.292969.931458 12.665955-1.122436 19.246338m-10.924805-22.966309c-2.260132-2.545227-4.884704-3.94104-8.353882-2.622192-3.356018 1.275879-4.113952 4.213928-4.264831 7.262146-.20459 4.134277-.37262 8.282959.294922 12.422607.627258 3.889466 2.781555 6.020935 6.69049 5.943543 3.849549-.076172 6.402344-2.324829 6.754456-6.055054.511475-5.417725 1.147034-10.927307-1.121155-16.95105zm-289.079468 32.723633c-9.172332-.323364-18.414001-5.470886-17.351135-17.828308.298645-3.47229.032349-6.991821.055969-10.489502.084351-12.483948 10.661957-20.194519 22.850434-16.667175 8.584015 2.484314 12.573303 7.805176 12.60849 16.835815.012329 3.164734.00357 6.32959.000671 9.494385-.011108 12.06311-5.583526 17.929504-18.164429 18.654785m-6.762237-18.19989c.284027 5.571045 2.652984 8.474304 6.937164 8.50177 4.136078.026489 6.90033-2.738281 7.313446-7.886475.292053-3.639648.262238-7.336425.002411-10.980957-.306885-4.304504-3.605621-7.524048-7.434112-7.286316-4.373444.271668-6.489716 3.046692-6.707428 7.254578-.163361 3.156921-.083893 6.326477-.111481 10.3974zm179.328827-21.448486c1.320434-4.657227 4.510132-5.081787 8.324157-5.053467 3.870118.028686 5.054993 2.438476 6.145447 5.398498 3.905823 10.602356 7.949097 21.154602 11.771851 31.786438.699768 1.94635 2.764038 4.93396-.412781 6.007203-2.881348.973388-6.643555 1.900512-8.946167-1.857117-1.099243-1.793884-1.596252-4.335938-4.231384-4.455261-4.132507-.187012-8.313477-.710938-12.397919.302307-1.433288.355591-1.572388 2.017517-2.127472 3.201843-.725982 1.548889-1.619537 3.055847-3.524902 3.152893-2.436157.123962-5.299347 1.128296-7.166443-.771606-1.850616-1.883057.242096-4.081055.925354-5.991639 3.747894-10.480529 7.648041-20.906677 11.640259-31.720092m10.763672 20.622497c-.344361-3.407715-1.494202-6.492676-3.509705-9.886719-2.012573 3.612366-4.207397 6.85199-2.964966 10.112305.823914 2.162048 3.95221 1.370667 6.474671-.225586zm-214.932679-21.30719c-2.755859 4.424073-5.165954 8.611634-7.935211 12.546326-2.256653 3.20636-1.966522 6.005554.041718 9.146789 2.414886 3.777283 4.539886 7.739686 6.799743 11.616456.917511 1.573913 1.976502 3.105102 1.329224 5.045593-7.153503 2.332763-9.256226 1.599792-12.802582-4.288758-1.263061-2.09729-2.10202-4.507873-4.376983-6.225097-2.528717 1.890808-3.498841 4.781921-5.009217 7.27124-2.34494 3.864624-6.443695 5.481628-10.605346 4.098877-3.018952-1.003174-1.993622-3.019165-.990754-4.772644 2.310303-4.039429 4.599488-8.108887 7.211731-11.952454 2.602204-3.828796 2.392701-7.202209-.307128-10.86499-2.361176-3.203247-4.362793-6.673828-6.479249-10.053894-.94519-1.509521-2.320861-2.932312-1.466644-4.980347 9.999268-4.453247 12.782501 4.031556 17.031128 9.995484 3.359436-1.747498 4.214081-4.988342 5.994568-7.44635 2.229248-3.077698 7.295807-4.596741 10.610168-3.17334 1.91092.820801 1.714386 2.167419.954834 4.037109zm359.824707 2.726319c1.449707 2.626098 2.754517 4.913696 4.216614 7.477111 3.710266-2.493103 4.652527-6.375488 6.211304-9.676513 1.978394-4.189698 5.013-5.284546 9.254089-4.8573 3.419922.344482 4.545716 1.543396 2.679749 4.803955-2.473572 4.32251-4.597901 8.852356-7.198548 13.093018-3.750122 6.114868-6.020568 12.479736-5.12091 19.785949.498291 4.046326-1.102966 6.077515-5.605225 6.095154-4.564331.017822-5.59375-2.415832-4.976501-5.985535 2.079284-12.024963-6.562989-20.014221-10.833313-29.653808-1.076599-2.430298-4.705872-4.864624-1.297974-7.667908 2.627747-2.161499 8.77417-.037414 10.850098 3.193298.62622.97461 1.120849 2.033692 1.820617 3.392579zm-108.4328 73.991272c-3.150635-2.755005-3.857544-6.899964-7.410278-9.604737-.247681 2.704346-.404053 4.956848-.674011 7.195618-.230652 1.912292-1.275879 2.950928-3.331421 2.906738-2.086975-.044922-3.178772-1.26709-3.183167-3.096985-.015075-6.298339.12909-12.598205.304627-18.894958.04132-1.481995.989319-2.38916 2.531799-2.61969 1.840332-.275025 3.150146.415955 4.304993 1.858337 2.054199 2.565552 2.965088 5.9198 6.386657 8.901551 0-2.689087-.020202-4.582459.005249-6.475342.029114-2.160706.452149-4.105591 3.201111-4.072449 2.771118.033508 3.101319 2.106079 3.12732 4.184509.066589 5.318909.013366 10.639161.05072 15.958557.024414 3.477234-1.467163 4.964051-5.313599 3.758851zm-110.552276-5.844605c-.102509 1.794617-.08133 3.137634-.315796 4.43457-.299591 1.657044-1.61496 1.950806-3.050446 1.826905-1.805267-.155762-2.736664-1.397278-2.77597-2.992676-.151184-6.140442-.164124-12.284851-.168305-18.427795-.000671-1.002381.440613-1.911683 1.36731-2.509278 2.244751-1.447693 14.053741-.498535 15.887146 1.510742 2.758117 3.022461 3.513916 6.976441 1.124969 10.065064-2.537567 3.280823-2.500488 5.657409-.145019 8.654419.530304.674682.437317 1.839172.655945 2.897461-4.64618 2.3573-6.496277-.595948-8.240815-3.771729-1.696685-3.088684-3.803253-6.209106.297303-9.086487 1.339202-.939697 2.339172-2.001281 1.502014-3.708435-.689423-1.405883-2.061035-1.530273-3.445984-1.40039-1.852112.173584-2.564606 1.420044-2.610809 3.06781-.083771 2.987549-.053895 5.978332-.081543 9.439819zm67.386932-15.554016c1.418152 1.834351 2.405823 3.63916.81665 5.223083-1.911407 1.904847-3.622955.311402-5.219207-.938964-1.738587-1.361817-3.78656-2.026001-5.361573-.177491-2.522308 2.960205-1.984192 6.644226-1.021759 9.962037.646179 2.227417 2.702606 2.757934 5.212952 1.040771-1.184418-1.82843-4.029572-3.884644-1.436554-6.052368 1.893646-1.582947 4.77829-1.750916 7.142242-.671082 2.886658 1.318665 2.476136 4.056702 1.919129 6.531433-1.009583 4.486084-4.993561 7.155945-10.182465 6.994141-4.720886-.147217-8.49353-3.087585-9.331665-7.501831-.305816-1.610718-.225677-3.310913-.190552-4.967529.240754-11.35553 7.229798-15.257447 17.652802-9.4422zm10.565552 21.980041c-3.257386.056397-4.34076-1.548095-4.352845-4.085021-.026184-5.495911-.012573-10.992249.011353-16.488221.002808-.657104.058838-1.354431.281433-1.963196.921143-2.518615 3.202698-2.242187 5.078552-2.012512 4.130127.505554 9.109314-2.06726 12.204346 1.706726 1.865906 2.275208-.830261 3.473572-3.296875 3.817139-2.498962.348084-5.67279-1.405212-7.470459 1.952698 1.706909 2.41217 4.079529 1.325012 6.092651 1.550232 1.963685.219726 3.837952.536438 3.791993 2.97467-.042298 2.242859-1.901612 2.24762-3.608643 2.534058-2.220825.372558-6.223144-1.323487-6.120605 2.169739.113159 3.8526 4.215148 1.692932 6.5484 2.149292 2.037049.398315 4.781311-.287415 4.688294 3.007263-.093933 3.32312-2.859619 2.601013-4.885681 2.676208-2.827515.10492-5.661927.022583-8.961914.010925zm-117.22345-23.789672c5.095459 3.249633 7.228699 14.113769 4.158386 19.336486-2.309021 3.927735-8.506042 5.45691-13.340759 3.344971-1.411499-.616577-2.578735-1.485535-3.491608-2.707641-2.36969-3.172303-2.62912-13.426575-.229034-16.737793 3.208313-4.42627 7.692779-4.651795 12.903015-3.236023m-6.612366 5.745422c-2.389282 3.123657-1.38977 6.649841-.934417 9.988464.249542 1.829956 2.134552 2.849488 3.835723 2.018189 4.184998-2.044983 2.388337-6.068604 2.443085-9.29657.048798-2.878479-1.754059-4.143311-5.344391-2.710083zm91.00763 8.44458c.431732 1.144226.813293 1.905151.983276 2.710754.453247 2.148377 2.459808 4.690674.027008 6.377198-2.308014 1.600036-3.596741-1.128418-5.329407-2.293824-2.940124-1.977478-6.243316-2.256958-8.921783.727784-1.205689 1.343628-2.399017 2.527649-4.227783 1.604248-1.967346-.993347-1.442841-2.903748-.924652-4.430542 1.870636-5.51117 3.878906-10.97638 5.886444-16.440125.748016-2.035705 2.055206-3.329529 4.47644-3.222107 2.241791.099427 3.198914 1.491516 3.854279 3.317566 1.349304 3.759827 2.687011 7.523865 4.176178 11.649048zm-55.588715 1.562317c-2.280762 6.024536-6.701294 8.80896-11.877441 7.860352-5.576538-1.021973-7.815979-4.031922-7.91565-10.852784-.048492-3.317016-.010895-6.641296.162873-9.953186.104614-1.994629.994049-3.590698 3.370361-3.442993 2.190582.136231 2.596527 1.763977 2.626861 3.536377.051117 2.987244-.010101 5.976807.06308 8.963196.065003 2.652405-.156891 5.965454 3.545807 5.983642 3.496979.017212 3.837799-3.004516 3.822754-5.836914-.015839-2.987793-.005554-5.976379.051514-8.963623.037384-1.957092.433166-3.709228 2.959839-3.725097 2.399841-.015076 3.222046 1.607788 3.2742 3.567444.110382 4.144348.001801 8.294433-.084198 12.863586zm141.804352-16.466248c2.555237.545472 4.606262 1.215943 5.967346 3.106141.897644 1.246643 1.750794 2.611999.636108 4.089599-1.087463 1.441528-2.632019 1.341553-4.043151.535095-2.105835-1.203491-4.211487-3.599548-6.599244-1.086547-2.58966 2.725646-1.793151 6.427612-.955566 9.494323.843933 3.089844 3.496826 3.434571 5.816223 1.144348 1.817139-1.794311 3.792603-3.589721 5.789063-1.083496 2.069946 2.598389-.260987 4.713379-2.217835 6.20636-3.488952 2.661865-7.371399 2.718872-11.319824.921387-3.65979-1.666077-4.959778-4.685974-4.911926-8.495606.014526-1.164856-.015869-2.330139-.009461-3.495178.046509-8.448364 2.819153-11.209411 11.848267-11.336426zm10.62561 2.679261c1.604187-4.448609 4.064881-3.112793 6.223816-1.007752 1.254517 1.223267 1.952637 3.017273 2.985962 4.692017 3.980225-.953919 3.928589-9.413635 10.272095-5.465515.495422 2.855896-1.431824 4.80011-2.584351 6.860534-2.38324 4.260865-4.474426 8.458008-3.972839 13.562195.189148 1.924927-.978516 3.051087-3.044617 3.0896-1.783996.033264-3.228515-.837647-3.034424-2.510437.864441-7.450928-3.977112-12.757752-6.845642-19.220642zm-208.145019 21.576782c-4.123291-3.319458-1.936402-7.586731-2.298096-11.364624-.339233-3.54364.902924-7.592774-4.663696-8.145935-1.116242-.110962-1.857819-1.382752-1.71576-2.718689.150879-1.419129 1.168-2.01062 2.42688-2.026184 4.493286-.055542 8.987915-.053162 13.481385-.009644 1.217804.01178 2.33963.426087 2.606933 1.837647.294068 1.552917-.451874 2.901306-1.857361 3.075317-4.351745.538513-4.041229 3.593567-4.000488 6.655457.039825 2.995971.070007 5.997009-.061096 8.988586-.093567 2.134583-.705078 4.030701-3.918701 3.708069z"/>
</svg>