<svg xmlns="http://www.w3.org/2000/svg" width="19" height="15" fill="none">
  <path fill="#282828" stroke="#282828" stroke-width=".5" d="M16.7734.820312H2.22656c-.59052 0-1.15685.234588-1.574415.652148C.234584 1.89002 0 2.45635 0 3.04688v8.90622c0 .5905.234584 1.1569.652145 1.5744.417565.4176.983895.6522 1.574415.6522H16.7734c.5906 0 1.1569-.2346 1.5745-.6522.4175-.4175.6521-.9839.6521-1.5744V3.04688c0-.59053-.2346-1.15686-.6521-1.57442-.4176-.41756-.9839-.652148-1.5745-.652148Zm1.336 11.132788c0 .3543-.1408.6941-.3913.9447-.2505.2505-.5903.3913-.9447.3913H2.22656c-.35431 0-.69411-.1408-.94465-.3913-.25053-.2506-.391285-.5904-.391285-.9447V3.04688c0-.35432.140755-.69412.391285-.94466.25054-.25053.59034-.39128.94465-.39128H16.7734c.3544 0 .6942.14075.9447.39128.2505.25054.3913.59034.3913.94466v8.90622Z"/>
</svg>