<svg xmlns="http://www.w3.org/2000/svg" width="23" height="23" fill="none">
  <path fill="#0499DD" d="M15.8123 13.4167c-1.4375 0-2.5875.3833-3.45.8625 1.3417 1.15 1.9167 2.4917 2.0125 2.5875l.0958.1917v2.1083h7.6667V17.25c-.0958 0-1.6292-3.8333-6.325-3.8333ZM15.8122 11.5c1.8524 0 3.3541-1.50171 3.3541-3.35416 0-1.85246-1.5017-3.35417-3.3541-3.35417-1.8525 0-3.3542 1.50171-3.3542 3.35417 0 1.85245 1.5017 3.35416 3.3542 3.35416ZM3.8335 8.14584c0-1.82084 1.53333-3.35417 3.35416-3.35417 1.82084 0 3.35414 1.53333 3.35414 3.35417 0 1.82083-1.5333 3.35416-3.35414 3.35416-1.82083 0-3.35416-1.53333-3.35416-3.35416Zm3.35416 5.27086C2.49183 13.4167.958496 17.25.958496 17.25v1.9167H13.4168V17.25s-1.5333-3.8333-6.22914-3.8333Z"/>
</svg>
