<svg xmlns="http://www.w3.org/2000/svg" width="15" height="15" fill="none">
  <path stroke="#fff" stroke-linecap="round" stroke-linejoin="round" stroke-miterlimit="10" stroke-width=".6" d="M9.7 4.41997c1.701 0 3.08-.49249 3.08-1.1 0-.60751-1.379-1.1-3.08-1.1-1.70104 0-3.08.49249-3.08 1.1 0 .60751 1.37896 1.1 3.08 1.1Z"/>
  <path stroke="#fff" stroke-linecap="round" stroke-linejoin="round" stroke-miterlimit="10" stroke-width=".6" d="M6.62 3.54004v1.32c0 .60742 1.37852 1.1 3.08 1.1 1.7015 0 3.08-.49258 3.08-1.1v-1.32"/>
  <path stroke="#fff" stroke-linecap="round" stroke-linejoin="round" stroke-miterlimit="10" stroke-width=".6" d="M8.28101 7.37654c.4246.07876.90728.12342 1.419.12342 1.70149 0 3.07999-.49258 3.07999-1.1v-1.32m-6.16 0v.9394"/>
  <path stroke="#fff" stroke-linecap="round" stroke-linejoin="round" stroke-miterlimit="10" stroke-width=".6" d="M8.3855 8.93505c.39864.06732.84414.10494 1.3145.10494 1.7015 0 3.08-.49236 3.08-1.1V6.62"/>
  <path stroke="#fff" stroke-linecap="round" stroke-linejoin="round" stroke-miterlimit="10" stroke-width=".6" d="M8.36853 10.4722c.40282.0691.85448.1078 1.33144.1078 1.70153 0 3.08003-.4923 3.08003-1.09997v-1.32m-7.48003-.00007c1.70104 0 3.08-.49249 3.08-1.1 0-.60751-1.37896-1.1-3.08-1.1s-3.08.49249-3.08 1.1c0 .60751 1.37896 1.1 3.08 1.1Z"/>
  <path stroke="#fff" stroke-linecap="round" stroke-linejoin="round" stroke-miterlimit="10" stroke-width=".6" d="M2.21997 7.28003v1.32c0 .60764 1.37852 1.1 3.08 1.1s3.08-.49236 3.08-1.1v-1.32"/>
  <path stroke="#fff" stroke-linecap="round" stroke-linejoin="round" stroke-miterlimit="10" stroke-width=".6" d="M2.21997 8.81995v1.31995c0 .6077 1.37852 1.1 3.08 1.1s3.08-.4923 3.08-1.1V8.81995"/>
  <path stroke="#fff" stroke-linecap="round" stroke-linejoin="round" stroke-miterlimit="10" stroke-width=".6" d="M2.21997 10.36v1.32c0 .6076 1.37852 1.1 3.08 1.1s3.08-.4924 3.08-1.1v-1.32"/>
</svg>