<svg xmlns="http://www.w3.org/2000/svg" width="12" height="12" fill="none">
  <path fill="#fff" d="M6 11.625c-1.11252 0-2.20005-.3299-3.12508-.948-.92503-.6181-1.646-1.49657-2.07174-2.5244C.377437 7.12476.266043 5.99376.483085 4.90262.700127 3.81148 1.23586 2.8092 2.02253 2.02253S3.81148.700127 4.90262.483085C5.99376.266043 7.12476.377437 8.1526.80318c1.02783.42574 1.9063 1.14671 2.5244 2.07174.6181.92503.948 2.01256.948 3.12508 0 1.49184-.5926 2.92259-1.64752 3.97748C8.92259 11.0324 7.49184 11.625 6 11.625Zm0-10.5c-.96418 0-1.90671.28592-2.7084.82159-.80169.53567-1.42653 1.29704-1.79551 2.18783-.36898.89079-.46552 1.87099-.27742 2.81665.18811.94566.65241 1.8143 1.33419 2.49608.68178.68175 1.55042 1.14605 2.49608 1.33415.94565.1881 1.92585.0916 2.81664-.2774s1.65217-.9938 2.18782-1.79549c.5357-.80169.8216-1.74422.8216-2.70841 0-1.29293-.5136-2.5329-1.42785-3.44714C8.53291 1.63862 7.29293 1.125 6 1.125Z"/>
  <path fill="#fff" d="M7.59001 8.1225 5.73376 6.26625a.374991.374991 0 0 1-.08092-.12228A.374977.374977 0 0 1 5.62501 6V3h.75v2.84625L8.12251 7.59l-.5325.5325Z"/>
</svg>